<svg width="118" height="206" viewBox="0 0 118 206" fill="none" xmlns="http://www.w3.org/2000/svg">
<g id="mole">
<ellipse id="Ellipse 1" cx="59" cy="103" rx="59" ry="103" fill="#746666"/>
<ellipse id="Ellipse 2" cx="60.5" cy="60.5" rx="22.5" ry="18.5" fill="#BCB6B6"/>
<ellipse id="Ellipse 3" cx="49" cy="26.5" rx="7" ry="3.5" fill="black"/>
<ellipse id="Ellipse 4" cx="72.5" cy="26" rx="6.5" ry="4" fill="black"/>
<ellipse id="Ellipse 5" cx="60" cy="66.5" rx="4" ry="3.5" fill="black"/>
<path id="Line 1" d="M42.5 52.5L42.8125 53.6784C47.413 71.029 72.0835 70.8983 76.5 53.5V53.5" stroke="black"/>
<line id="Line 2" x1="37.8143" y1="48.4642" x2="17.8143" y2="40.4642" stroke="black"/>
<line id="Line 3" x1="18.0822" y1="51.5068" x2="36.0822" y2="54.5068" stroke="black"/>
<line id="Line 4" x1="14.9293" y1="62.505" x2="35.9293" y2="59.505" stroke="black"/>
<line id="Line 5" y1="-0.5" x2="23.9823" y2="-0.5" transform="matrix(0.942722 -0.333579 -0.412011 -0.911179 83 51)" stroke="black"/>
<line id="Line 6" y1="-0.5" x2="20.5678" y2="-0.5" transform="matrix(-0.989305 0.145859 0.185148 0.982711 105.609 55)" stroke="black"/>
<line id="Line 7" y1="-0.5" x2="23.9279" y2="-0.5" transform="matrix(-0.992109 -0.125376 -0.159425 0.98721 109 66)" stroke="black"/>
</g>
</svg>
